Coordinates
version=1
nRows=20
nColumns=24
inDegrees=yes

Units are S.I. units (second, meters, Newtons, ...)
If the header above contains a line with 'inDegrees', this indicates whether rotational values are in degrees (yes) or radians (no).

endheader
time	pelvis_tilt	pelvis_list	pelvis_rotation	pelvis_tx	pelvis_ty	pelvis_tz	hip_flexion_r	hip_adduction_r	hip_rotation_r	knee_angle_r	ankle_angle_r	subtalar_angle_r	mtp_angle_r	hip_flexion_l	hip_adduction_l	hip_rotation_l	knee_angle_l	ankle_angle_l	subtalar_angle_l	mtp_angle_l	lumbar_extension	lumbar_bending	lumbar_rotation
2.575000	11.341536	1.739134	-181.055217	0.273563	0.730324	-1.209795	48.248144	-21.050810	-17.444987	-65.162772	22.181140	5.913697	0.000000	48.802378	-27.462374	-16.835004	-65.242203	22.476245	12.152401	0.000000	-7.463039	0.838111	1.799471
2.580000	11.353676	1.735536	-180.989484	0.274501	0.726860	-1.210059	48.809612	-21.244017	-17.298625	-66.090658	22.579541	5.928367	0.000000	49.422184	-27.607121	-16.549870	-66.102577	22.869064	12.309832	0.000000	-7.596263	0.794399	1.769762
2.585000	11.460028	1.795819	-180.959538	0.275293	0.723433	-1.210200	49.412912	-21.372469	-17.212117	-66.941306	22.951260	5.983681	0.000000	50.132295	-27.796299	-16.222010	-66.939963	23.254063	12.447544	0.000000	-7.607713	0.832236	1.795092
2.590000	11.521056	1.835074	-180.942212	0.276130	0.719923	-1.210376	50.018217	-21.512478	-17.086618	-67.847149	23.333748	5.991419	0.000000	50.800550	-28.000424	-15.925413	-67.783736	23.621623	12.536112	0.000000	-7.671572	0.853859	1.831549
2.595000	11.493998	1.877829	-180.888260	0.277005	0.716448	-1.210639	50.525717	-21.667579	-16.987360	-68.767279	23.740198	6.003429	0.000000	51.421666	-28.186201	-15.581420	-68.700882	23.894378	12.569646	0.000000	-7.845719	0.872653	1.775172
2.600000	11.658361	1.945985	-180.778022	0.278382	0.713181	-1.211236	51.171102	-21.727261	-16.763066	-69.524244	24.189063	6.326092	0.000000	52.235399	-28.307481	-15.159393	-69.345491	24.201725	12.690293	0.000000	-7.862828	0.855746	1.740532
2.605000	11.570647	1.929060	-180.835306	0.278638	0.709496	-1.211005	51.655496	-21.973143	-16.691138	-70.513027	24.528059	6.239877	0.000000	52.664989	-28.534624	-15.029570	-70.295445	24.738816	12.824508	0.000000	-8.007960	0.875609	1.800741
2.610000	11.624741	1.958102	-180.786284	0.279427	0.706033	-1.211269	52.213369	-22.147092	-16.627413	-71.365910	24.857433	6.266895	0.000000	53.315475	-28.717084	-14.763304	-71.114368	25.088475	13.005059	0.000000	-8.055759	0.877555	1.808944
2.615000	11.604887	1.935916	-180.740001	0.280226	0.702578	-1.211490	52.735266	-22.344751	-16.469984	-72.244185	25.243392	6.260998	0.000000	53.888680	-28.865693	-14.530497	-72.021330	25.307169	13.085539	0.000000	-8.192610	0.816458	1.819482
2.620000	11.627754	1.971508	-180.748386	0.280847	0.699114	-1.211626	53.269327	-22.486492	-16.362654	-73.092613	25.610813	6.298520	0.000000	54.445653	-29.081300	-14.311350	-72.720140	25.827660	13.244038	0.000000	-8.255133	0.853663	1.877495
2.625000	11.596999	1.973031	-180.721041	0.281501	0.695693	-1.211766	53.765932	-22.671696	-16.232366	-73.968323	25.972890	6.334112	0.000000	55.007566	-29.256366	-14.062676	-73.663228	25.994699	13.298795	0.000000	-8.379440	0.844579	1.880870
2.630000	11.582536	1.970210	-180.705506	0.282092	0.692215	-1.211898	54.271599	-22.854862	-16.090692	-74.824779	26.331834	6.394632	0.000000	55.497423	-29.433192	-13.872458	-74.323220	26.569387	13.558532	0.000000	-8.472185	0.827797	1.904300
2.635000	11.588079	1.997611	-180.707648	0.282656	0.688896	-1.212115	54.742957	-22.985498	-15.983879	-75.594862	26.685248	6.478816	0.000000	56.045811	-29.645111	-13.642232	-75.121963	26.846095	13.706676	0.000000	-8.539795	0.855580	1.934836
2.640000	11.519057	1.981544	-180.643247	0.283263	0.685577	-1.212385	55.158449	-23.178722	-15.845233	-76.401803	27.058034	6.508173	0.000000	56.539409	-29.772332	-13.397129	-75.976989	27.034766	13.765768	0.000000	-8.696962	0.793836	1.904943
2.645000	11.488960	1.967346	-180.621243	0.283780	0.682340	-1.212556	55.612929	-23.368802	-15.711228	-77.191681	27.391692	6.637106	0.000000	57.006173	-29.921349	-13.200277	-76.698995	27.385666	13.886635	0.000000	-8.803777	0.756590	1.934526
2.650000	11.449760	2.008235	-180.626226	0.284281	0.679107	-1.212792	56.003852	-23.449342	-15.451990	-77.906840	27.930252	7.215185	0.000000	57.508124	-30.144434	-12.960212	-77.465292	27.652216	13.981979	0.000000	-8.903869	0.776582	2.014168
2.655000	11.410544	2.045059	-180.620001	0.284652	0.675935	-1.212913	56.436346	-23.623605	-15.532677	-78.727498	28.081786	6.777751	0.000000	57.980647	-30.327933	-12.709365	-78.194256	27.958618	14.083335	0.000000	-8.991406	0.803047	2.071093
2.660000	11.309332	2.033110	-180.631318	0.285008	0.672785	-1.213112	56.795913	-23.754936	-15.380957	-79.479228	28.434366	6.697724	0.000000	58.348858	-30.496035	-12.522636	-78.928345	28.281083	14.099521	0.000000	-9.139238	0.784757	2.100893
2.665000	11.274628	2.031504	-180.633642	0.285447	0.669561	-1.213214	57.228270	-23.915133	-15.237284	-80.224810	28.710436	6.822569	0.000000	58.887100	-30.681774	-12.273095	-79.904013	28.365347	14.250594	0.000000	-9.211462	0.804158	2.109038
2.670000	11.180050	2.046468	-180.618294	0.285692	0.666608	-1.213373	57.541886	-24.055136	-15.127537	-80.928759	29.021777	6.890024	0.000000	59.251870	-30.839074	-12.068737	-80.580518	28.655068	14.315235	0.000000	-9.333582	0.821677	2.128693
